<?xml version="1.0" standalone="no"?>
<!DOCTYPE svg PUBLIC "-//W3C//DTD SVG 20010904//EN"
 "http://www.w3.org/TR/2001/REC-SVG-20010904/DTD/svg10.dtd">
<svg version="1.0" xmlns="http://www.w3.org/2000/svg"
 width="3141.000000pt" height="3141.000000pt" viewBox="0 0 3141.000000 3141.000000"
 preserveAspectRatio="xMidYMid meet">
<metadata>
Created by potrace 1.14, written by Peter Selinger 2001-2017
</metadata>
<g transform="translate(0.000000,3141.000000) scale(0.100000,-0.100000)"
fill="#000000" stroke="none">
<path d="M13582 31333 c-49 -66 -115 -159 -324 -458 -15 -22 -49 -70 -75 -107
-27 -37 -100 -140 -163 -230 -63 -89 -136 -191 -162 -227 -26 -37 -61 -86 -78
-111 -42 -63 -63 -91 -77 -106 -7 -7 -13 -15 -13 -18 0 -5 -459 -650 -478
-672 -5 -5 -28 -37 -51 -70 -23 -32 -64 -90 -92 -129 -97 -135 -146 -234 -175
-350 -21 -85 -25 -102 -38 -176 -8 -49 -12 -2985 -14 -11655 -1 -6373 -5
-11590 -7 -11592 -2 -3 -46 29 -97 71 -51 41 -122 99 -158 128 -36 29 -112 91
-170 138 -58 46 -119 96 -136 110 -17 14 -48 40 -69 56 -22 17 -80 64 -130
105 -51 41 -136 111 -190 155 -54 44 -131 106 -169 137 -39 32 -75 61 -81 66
-5 4 -64 51 -130 105 -66 54 -149 122 -184 150 -35 29 -107 87 -160 130 -53
43 -111 90 -130 105 -19 15 -51 41 -70 58 -33 28 -269 219 -480 389 -200 160
-237 190 -256 208 -11 11 -36 31 -55 45 -19 15 -37 29 -40 32 -3 3 -39 32 -80
65 -41 32 -77 61 -80 64 -3 4 -75 62 -160 131 -85 68 -182 147 -216 175 -34
27 -78 64 -99 80 -21 17 -57 46 -80 65 -23 19 -95 78 -160 130 -65 52 -159
129 -210 170 -134 110 -240 195 -345 280 -51 41 -147 119 -214 173 -66 54
-128 104 -136 110 -8 7 -51 42 -95 78 -244 200 -354 289 -409 332 -33 27 -72
58 -86 70 -27 23 -110 90 -316 256 -71 58 -131 107 -134 110 -3 3 -75 62 -160
130 -85 69 -171 138 -190 155 -20 17 -51 42 -70 56 -19 14 -53 41 -75 61 -22
19 -71 59 -110 89 -38 30 -72 57 -75 60 -4 5 -106 89 -150 123 -8 7 -84 68
-169 137 -84 69 -165 134 -180 145 -14 10 -55 44 -91 75 -36 30 -83 69 -105
85 -21 17 -52 42 -69 56 -51 42 -222 181 -467 379 -53 42 -123 99 -156 126
-32 27 -76 63 -97 79 -21 17 -44 35 -50 40 -6 6 -47 39 -91 75 -44 36 -107 87
-141 115 -33 27 -78 64 -100 80 -21 17 -56 46 -78 65 l-38 36 24 29 c13 17 44
59 69 95 24 36 49 70 54 76 6 6 16 20 22 30 22 33 97 139 106 149 5 6 50 69
100 141 172 245 388 548 407 571 6 7 10 16 10 22 0 5 4 11 8 13 5 2 35 41 67
88 32 47 67 96 77 110 23 29 87 120 105 147 7 10 67 93 132 186 169 236 415
583 487 685 33 48 167 238 299 422 131 184 286 403 344 485 58 83 119 168 136
191 16 23 48 67 70 98 22 32 67 95 100 141 33 46 66 92 73 102 7 10 39 56 72
103 32 47 63 90 67 95 8 9 77 106 103 145 39 57 298 420 380 533 28 37 50 70
50 72 0 3 26 41 59 85 l58 80 2 -1983 c1 -1090 4 -1993 6 -2007 2 -14 6 -52
10 -84 9 -70 7 -60 30 -161 23 -100 44 -150 94 -223 63 -91 102 -128 356 -332
44 -35 82 -67 85 -70 3 -3 25 -21 50 -40 25 -19 56 -45 70 -56 44 -38 354
-289 376 -304 20 -14 39 -30 183 -150 67 -56 386 -314 444 -360 18 -14 68 -54
112 -91 106 -87 159 -121 225 -147 165 -64 303 -73 463 -32 56 15 113 32 127
40 158 83 304 267 334 422 2 13 11 50 19 84 12 51 15 298 16 1640 2 1828 2
2266 2 3434 0 1293 0 1799 0 2685 0 785 0 1247 0 2740 0 391 1 1079 1 1530 1
451 -2 840 -5 865 -37 260 -136 430 -322 551 -60 39 -236 89 -325 92 -92 3
-370 -68 -370 -95 0 -5 -5 -8 -10 -8 -31 0 -142 -100 -205 -185 -17 -22 -33
-44 -38 -50 -8 -10 -219 -309 -237 -335 -41 -60 -182 -258 -192 -269 -7 -8
-31 -42 -53 -75 -23 -34 -66 -95 -96 -136 -30 -41 -63 -88 -74 -105 -10 -16
-22 -34 -27 -40 -5 -5 -39 -53 -76 -105 -152 -213 -291 -407 -318 -446 -84
-120 -276 -391 -602 -849 -129 -181 -264 -372 -301 -424 -36 -51 -132 -186
-213 -300 -232 -327 -257 -362 -447 -631 -99 -140 -203 -286 -231 -325 -27
-38 -110 -155 -184 -260 -74 -104 -138 -194 -143 -200 -4 -5 -17 -23 -27 -40
-11 -16 -45 -64 -75 -106 -31 -42 -62 -85 -68 -95 -7 -11 -57 -80 -110 -154
-53 -74 -122 -171 -152 -216 -31 -44 -75 -107 -99 -140 -23 -32 -65 -90 -92
-129 -27 -38 -54 -75 -60 -82 -5 -7 -10 -15 -10 -18 0 -4 -15 -25 -34 -48 -30
-38 -133 -183 -305 -430 -35 -51 -68 -93 -72 -95 -5 -2 -9 -10 -9 -18 0 -8 -3
-14 -7 -14 -5 0 -15 -12 -25 -28 -9 -15 -66 -97 -127 -182 -62 -85 -132 -184
-156 -220 -49 -71 -209 -299 -222 -315 -5 -5 -114 -158 -243 -340 -128 -181
-283 -400 -344 -485 -60 -85 -130 -184 -155 -220 -25 -36 -48 -67 -51 -70 -8
-8 -97 -134 -168 -240 -20 -30 -41 -60 -47 -67 -26 -32 -33 -41 -65 -88 -18
-27 -36 -52 -39 -55 -3 -3 -26 -34 -50 -70 -47 -69 -210 -298 -224 -315 -12
-15 -111 -155 -122 -173 -5 -9 -14 -22 -20 -28 -5 -7 -27 -37 -47 -66 -20 -29
-98 -138 -172 -243 -74 -104 -161 -227 -193 -273 -32 -45 -64 -90 -71 -100
-38 -52 -400 -561 -492 -692 -85 -120 -270 -380 -302 -425 -30 -40 -258 -364
-281 -398 -15 -22 -83 -116 -100 -137 -7 -8 -29 -40 -49 -70 -21 -30 -59 -85
-85 -122 -45 -61 -156 -219 -185 -261 -7 -10 -36 -49 -64 -87 -27 -37 -68 -94
-90 -127 -21 -32 -41 -60 -44 -63 -3 -3 -21 -27 -40 -55 -19 -27 -39 -56 -45
-62 -5 -7 -36 -50 -68 -95 -32 -46 -80 -114 -108 -153 l-49 -69 0 -572 0 -572
52 -45 c57 -47 234 -191 388 -314 52 -42 111 -90 130 -107 20 -17 51 -42 69
-56 19 -14 39 -30 45 -36 12 -11 248 -203 305 -247 20 -15 54 -43 76 -61 61
-51 286 -234 319 -259 15 -12 33 -27 40 -32 6 -6 58 -49 116 -96 58 -47 227
-183 375 -304 149 -120 297 -242 331 -269 34 -28 114 -94 179 -146 65 -52 148
-120 185 -150 37 -30 82 -66 100 -80 18 -14 38 -30 44 -35 6 -6 52 -43 101
-83 50 -40 110 -90 134 -110 24 -20 121 -99 215 -175 167 -135 217 -176 572
-463 94 -77 215 -175 270 -219 54 -44 101 -82 104 -85 3 -3 27 -24 55 -45 27
-22 88 -71 135 -110 47 -38 103 -83 124 -100 22 -16 58 -46 81 -65 22 -19 56
-46 74 -60 18 -14 40 -32 49 -41 17 -15 390 -319 455 -369 18 -14 65 -52 105
-85 41 -33 101 -82 135 -109 34 -27 89 -72 122 -100 34 -28 78 -64 99 -81 42
-32 290 -233 371 -299 96 -79 180 -148 198 -163 10 -8 75 -60 143 -116 68 -56
164 -133 213 -172 142 -113 279 -224 309 -250 34 -31 177 -147 251 -203 31
-24 79 -63 106 -87 28 -23 75 -62 105 -86 30 -24 61 -49 68 -56 8 -7 30 -26
50 -40 36 -27 142 -113 152 -123 5 -6 92 -76 118 -95 7 -5 21 -17 31 -26 10
-9 74 -61 142 -116 150 -119 155 -124 238 -193 36 -31 95 -78 131 -105 35 -28
80 -64 100 -82 19 -17 71 -59 115 -93 44 -34 82 -65 85 -68 3 -4 39 -34 80
-67 41 -32 102 -82 135 -110 34 -27 76 -61 95 -75 19 -14 53 -41 75 -61 22
-19 62 -53 90 -75 27 -21 77 -61 111 -89 33 -27 80 -66 104 -85 24 -19 84 -68
134 -109 50 -40 143 -115 206 -166 302 -245 461 -374 516 -420 33 -27 76 -61
94 -75 19 -14 53 -41 75 -60 22 -20 73 -63 114 -95 63 -50 275 -221 361 -291
13 -10 39 -33 59 -50 20 -17 95 -77 166 -135 72 -58 139 -112 150 -121 11 -9
74 -60 140 -114 66 -53 134 -108 151 -123 16 -14 45 -37 64 -51 19 -14 64 -50
100 -80 84 -71 193 -159 290 -235 42 -34 85 -68 94 -78 10 -10 34 -30 54 -45
21 -15 42 -32 47 -38 6 -6 19 -17 31 -25 11 -8 43 -33 70 -55 27 -23 74 -62
104 -86 30 -24 102 -82 160 -128 58 -46 110 -89 116 -95 15 -13 98 -81 224
-182 8 -6 53 -42 99 -80 99 -80 153 -124 423 -342 112 -91 205 -167 208 -171
3 -3 40 -33 84 -68 l79 -62 536 0 536 0 36 58 c52 83 72 143 105 327 13 70 16
433 15 1725 0 800 0 1889 0 2420 0 531 0 1294 0 1695 -1 997 0 3811 0 4685 1
393 1 992 1 1330 -1 338 0 4694 1 9680 2 8810 1 9067 -17 9150 -31 141 -56
212 -98 278 l-40 62 -524 0 -523 0 -59 -77z"/>
<path d="M16693 31362 c-18 -26 -40 -65 -49 -87 -23 -56 -64 -228 -72 -305 -6
-54 -7 -9452 -2 -12885 0 -533 1 -1323 1 -1755 1 -7162 8 -15894 12 -15925 12
-79 50 -231 68 -273 10 -24 32 -63 49 -87 l31 -45 537 0 537 0 32 28 c17 15
44 36 59 47 15 11 32 25 38 30 10 10 184 152 331 270 34 28 120 97 191 154 71
57 131 108 132 113 2 4 10 8 18 8 8 0 14 4 14 8 0 5 19 23 43 40 23 17 58 46
78 64 21 18 50 42 65 53 15 11 55 43 88 70 32 28 87 73 121 100 229 184 453
366 470 382 11 10 38 32 60 48 45 34 73 57 124 101 20 17 81 66 136 110 132
105 130 104 205 166 36 29 112 91 170 137 58 47 107 87 110 90 3 4 75 62 160
130 85 67 169 135 185 150 17 15 62 51 100 81 39 30 79 63 90 74 11 10 36 30
55 45 35 25 166 132 340 276 47 38 98 79 114 90 15 11 40 31 55 45 15 14 44
39 66 55 21 17 65 53 99 81 34 27 133 108 221 179 88 70 180 145 205 166 25
20 126 103 225 183 99 81 187 152 195 159 8 7 47 38 85 69 39 31 97 78 130
105 128 104 322 261 399 322 45 35 83 67 86 71 3 4 68 57 145 118 77 61 149
119 160 129 11 10 65 54 120 98 55 43 129 104 165 135 36 30 81 66 100 80 19
14 50 39 70 56 39 34 369 303 464 377 33 27 81 66 106 87 47 39 113 93 245
199 44 35 98 79 120 97 22 18 78 64 124 101 81 65 221 179 306 248 22 18 67
54 100 81 33 26 62 50 65 53 5 6 161 133 259 210 31 24 72 58 92 75 19 17 53
45 74 61 22 17 66 52 100 80 33 27 67 55 75 62 42 33 107 87 125 102 11 9 65
53 121 97 55 44 111 90 125 101 13 12 78 64 144 117 66 53 126 101 134 107
104 88 147 123 206 169 39 30 86 69 105 87 19 18 41 33 48 33 6 0 12 3 12 8 0
4 28 29 63 57 34 27 67 54 73 60 6 5 29 24 50 40 21 17 54 44 74 61 19 16 64
52 100 80 35 27 71 56 80 65 8 9 49 43 90 75 41 31 91 71 110 88 20 17 53 45
74 61 35 27 142 113 173 140 7 5 18 15 25 20 35 27 109 87 120 98 7 7 33 28
58 47 61 47 78 61 114 91 17 14 69 56 116 94 47 38 90 74 96 80 6 5 26 21 44
35 51 38 91 70 135 110 22 19 58 49 79 65 21 17 99 80 173 140 75 61 150 121
168 135 48 37 284 229 325 264 20 17 53 45 74 61 22 17 56 44 76 60 20 17 56
46 80 65 25 19 71 58 105 85 33 28 103 85 155 127 163 131 234 189 260 211 14
12 68 56 120 97 52 41 100 80 105 86 6 6 44 37 85 69 41 32 91 72 110 89 20
17 50 42 68 56 35 27 44 33 117 95 26 22 64 52 84 68 20 15 45 35 56 45 24 19
145 118 305 247 63 51 125 101 137 111 12 11 44 37 72 59 l51 40 0 577 0 577
-47 68 c-26 37 -51 73 -56 78 -4 6 -96 134 -203 285 -107 151 -206 291 -220
310 -14 19 -43 60 -64 90 -22 30 -54 75 -72 99 -18 24 -37 52 -43 62 -11 18
-258 367 -272 384 -8 9 -121 167 -163 228 -16 23 -381 538 -406 572 -8 11 -86
121 -173 245 -88 124 -185 261 -217 305 -32 44 -94 132 -138 195 -44 63 -86
121 -93 128 -7 7 -13 17 -13 21 0 4 -8 16 -18 27 -10 11 -27 33 -38 49 -10 17
-57 83 -104 149 -47 65 -89 126 -95 135 -5 9 -13 18 -16 21 -3 3 -30 41 -59
85 -30 44 -57 82 -60 85 -3 3 -21 28 -40 55 -19 28 -38 52 -42 53 -4 2 -8 10
-8 17 0 7 -4 15 -8 17 -5 2 -27 30 -50 63 -61 89 -113 162 -241 342 -222 311
-246 345 -261 366 -8 12 -55 78 -104 147 -49 69 -110 155 -135 191 -101 144
-336 476 -361 509 -14 19 -41 58 -60 85 -19 28 -37 52 -40 55 -3 3 -24 32 -45
65 -22 33 -43 62 -47 63 -5 2 -8 10 -8 17 0 7 -4 15 -9 17 -4 2 -37 44 -71 93
-34 50 -67 92 -71 93 -5 2 -9 9 -9 16 0 7 -9 21 -20 31 -11 10 -20 22 -20 26
0 4 -22 39 -50 76 -27 37 -69 95 -93 128 -25 33 -53 74 -63 90 -10 17 -27 39
-36 49 -10 11 -18 23 -18 27 0 4 -6 14 -13 21 -7 7 -52 69 -100 138 -48 69
-90 130 -95 135 -9 11 -185 259 -204 289 -7 10 -22 31 -34 45 -20 25 -143 200
-174 246 -8 12 -23 33 -32 46 -10 13 -53 74 -96 134 -43 61 -116 164 -163 230
-47 66 -108 152 -134 190 -27 39 -51 72 -54 75 -3 3 -10 12 -16 22 -5 9 -80
114 -165 234 -233 328 -238 335 -279 394 -60 86 -279 394 -288 405 -5 6 -34
47 -66 93 -56 81 -126 179 -220 310 -26 37 -70 101 -99 142 -61 89 -109 152
-123 162 -7 5 -7 8 0 8 6 0 6 3 -1 8 -6 4 -32 39 -59 77 -90 131 -140 200
-152 213 -7 8 -17 21 -22 31 -5 9 -75 109 -155 221 -81 113 -152 213 -159 223
-16 24 -104 147 -120 168 -7 8 -16 23 -22 31 -20 30 -99 142 -206 291 -60 84
-114 160 -121 170 -7 10 -46 64 -86 120 -41 56 -90 127 -110 157 -20 30 -42
62 -49 70 -7 8 -69 96 -139 195 -70 99 -151 212 -179 250 -29 39 -65 90 -81
115 -16 25 -31 47 -35 50 -3 3 -25 34 -49 70 -24 36 -46 67 -50 70 -3 3 -26
34 -51 70 -24 36 -49 71 -56 77 -6 7 -21 29 -34 50 -43 71 -169 233 -205 266
-93 82 -166 124 -264 151 -149 42 -230 46 -368 17 -130 -28 -228 -79 -316
-167 -44 -44 -110 -143 -133 -199 -24 -57 -60 -204 -68 -273 -3 -26 -5 -371
-4 -767 0 -396 2 -3271 3 -6390 l3 -5670 22 -85 c12 -47 26 -101 32 -121 5
-20 29 -67 54 -105 107 -162 234 -253 405 -289 8 -2 34 -8 56 -13 65 -15 191
-7 284 17 46 13 89 25 95 29 5 4 15 7 21 8 14 2 119 68 155 98 35 28 93 75
159 128 30 24 102 82 159 129 58 46 143 115 190 153 47 38 93 75 101 83 8 7
45 37 81 66 119 94 213 171 259 210 25 21 50 41 55 45 27 20 103 80 130 104
16 15 59 50 95 78 113 91 143 115 154 125 6 6 31 26 56 45 84 65 185 152 224
193 80 86 145 205 161 299 3 17 8 34 10 38 5 7 12 49 19 101 2 19 8 61 12 94
4 33 8 950 8 2038 1 1087 2 1977 3 1977 2 0 78 -107 98 -138 6 -9 35 -50 65
-92 30 -43 73 -103 95 -134 22 -32 46 -64 53 -71 6 -8 12 -17 12 -22 0 -4 13
-22 28 -40 15 -17 52 -68 82 -113 52 -77 97 -140 120 -167 5 -7 10 -17 10 -23
0 -5 3 -10 8 -10 4 0 18 -17 32 -38 14 -20 79 -113 145 -207 66 -93 143 -201
170 -240 27 -38 53 -74 57 -80 21 -27 76 -105 103 -145 16 -25 32 -47 35 -50
3 -3 21 -27 40 -55 19 -27 38 -54 43 -60 12 -14 380 -535 417 -590 21 -32 53
-75 65 -89 6 -6 30 -40 55 -76 43 -64 251 -357 308 -435 16 -22 87 -122 158
-223 71 -101 169 -238 217 -305 48 -67 103 -144 122 -172 45 -66 200 -285 579
-817 50 -70 118 -166 151 -213 33 -47 68 -96 78 -108 10 -11 28 -37 39 -57 12
-19 24 -37 28 -40 3 -3 18 -25 35 -48 l29 -44 -21 -16 c-25 -20 -84 -69 -167
-137 -34 -28 -155 -127 -271 -220 -115 -92 -212 -171 -215 -174 -3 -3 -23 -19
-45 -36 -22 -16 -45 -34 -51 -40 -13 -12 -73 -62 -179 -147 -44 -35 -109 -88
-145 -117 -65 -53 -270 -220 -339 -276 -20 -16 -153 -124 -295 -240 -142 -115
-295 -239 -340 -274 -44 -36 -86 -70 -92 -75 -6 -6 -28 -24 -49 -41 -55 -43
-159 -128 -165 -135 -3 -3 -30 -24 -60 -48 -30 -23 -64 -50 -75 -60 -11 -11
-54 -45 -95 -77 -41 -32 -93 -75 -116 -94 -22 -20 -58 -49 -79 -66 -45 -35
-223 -178 -245 -198 -8 -7 -73 -60 -144 -118 -72 -57 -157 -126 -190 -154 -55
-45 -161 -130 -393 -318 -46 -37 -112 -91 -147 -120 -35 -28 -79 -63 -97 -77
-18 -14 -49 -39 -69 -55 -34 -29 -179 -148 -210 -172 -8 -6 -44 -35 -80 -65
-72 -59 -279 -228 -295 -240 -5 -4 -39 -31 -75 -61 -36 -29 -108 -87 -160
-130 -86 -69 -158 -128 -280 -227 -54 -44 -146 -118 -241 -195 -41 -32 -90
-73 -109 -90 -20 -16 -53 -43 -74 -60 -36 -28 -201 -162 -254 -206 -12 -10
-24 -19 -27 -19 -3 0 -13 -8 -23 -17 -18 -19 -77 -68 -149 -125 -23 -18 -74
-60 -114 -93 -40 -33 -85 -69 -100 -80 -23 -17 -149 -120 -289 -235 -112 -92
-182 -149 -216 -175 -21 -16 -70 -56 -108 -88 -39 -32 -78 -64 -86 -70 -45
-35 -226 -182 -230 -187 -3 -3 -14 -13 -26 -21 -11 -8 -41 -31 -65 -51 -126
-104 -183 -151 -274 -223 -55 -44 -104 -85 -110 -91 -5 -6 -30 -26 -55 -45
-25 -18 -72 -56 -105 -84 -34 -27 -80 -66 -104 -85 -25 -19 -74 -60 -110 -90
-89 -74 -129 -102 -134 -93 -2 5 -5 4112 -6 9128 -3 10822 -3 10142 -1 12310
2 1780 2 1768 -37 1920 -8 33 -17 71 -20 84 -13 70 -72 189 -150 299 -34 48
-72 102 -85 120 -13 18 -28 39 -34 45 -6 7 -29 39 -52 72 -55 77 -111 157
-247 347 -144 202 -235 330 -325 458 -40 58 -93 131 -117 163 -23 31 -43 60
-43 63 0 3 -15 24 -33 47 -19 23 -58 78 -88 122 -29 44 -56 82 -60 85 -3 3
-63 88 -134 190 -114 165 -322 456 -359 503 -12 16 -50 17 -537 17 l-524 -1
-32 -47z"/>
</g>
</svg>
